<svg xmlns="http://www.w3.org/2000/svg" aria-hidden="true" style="position:absolute;width:0;height:0;overflow:hidden">
  <defs>
    <symbol id="icon-instagram-2" viewBox="0 0 32 32">
      <path d="M31.969 9.408c-.075-1.7-.35-2.869-.744-3.882a7.803 7.803 0 0 0-1.85-2.838A7.867 7.867 0 0 0 26.543.844C25.524.45 24.361.175 22.661.1 20.948.019 20.404 0 16.06 0s-4.888.019-6.595.094c-1.7.075-2.869.35-3.882.744a7.803 7.803 0 0 0-2.838 1.85A7.867 7.867 0 0 0 .901 5.52C.507 6.539.232 7.702.157 9.402c-.081 1.713-.1 2.257-.1 6.601s.019 4.888.094 6.595c.075 1.7.35 2.869.744 3.882a7.895 7.895 0 0 0 1.85 2.838 7.867 7.867 0 0 0 2.832 1.844c1.019.394 2.182.669 3.882.744 1.706.075 2.25.094 6.595.094s4.888-.018 6.595-.094c1.7-.075 2.869-.35 3.882-.744a8.181 8.181 0 0 0 4.682-4.682c.394-1.019.669-2.182.744-3.882.075-1.707.094-2.251.094-6.595s-.006-4.888-.081-6.595zm-2.882 13.065c-.069 1.563-.331 2.407-.55 2.969a5.307 5.307 0 0 1-3.038 3.038c-.563.219-1.413.481-2.969.55-1.688.075-2.194.094-6.464.094s-4.782-.018-6.464-.094c-1.563-.069-2.407-.331-2.969-.55a4.926 4.926 0 0 1-1.838-1.194 4.974 4.974 0 0 1-1.194-1.838c-.219-.563-.481-1.413-.55-2.969-.075-1.688-.094-2.194-.094-6.464s.019-4.782.094-6.464c.069-1.563.331-2.407.55-2.969a4.868 4.868 0 0 1 1.2-1.838A4.974 4.974 0 0 1 6.639 3.55c.563-.219 1.413-.481 2.969-.55 1.688-.075 2.194-.094 6.464-.094 4.276 0 4.782.019 6.464.094 1.563.069 2.407.331 2.969.55a4.914 4.914 0 0 1 1.838 1.194 4.974 4.974 0 0 1 1.194 1.838c.219.563.481 1.413.55 2.969.075 1.688.094 2.194.094 6.464s-.019 4.77-.094 6.457z" style="fill:var(--color1, #f4f4fd)"/>
      <path d="M16.059 7.782c-4.538 0-8.22 3.682-8.22 8.22s3.682 8.22 8.22 8.22 8.22-3.682 8.22-8.22-3.682-8.22-8.22-8.22zm0 13.553a5.333 5.333 0 0 1 0-10.664 5.333 5.333 0 0 1 0 10.664zM26.524 7.457a1.919 1.919 0 1 1-3.838 0 1.919 1.919 0 0 1 3.838 0z" style="fill:var(--color1, #f4f4fd)"/>
    </symbol>
    <symbol id="icon-twitter-1" viewBox="0 0 32 32">
      <path  d="M32 6.078c-1.19.522-2.458.868-3.78 1.036a6.523 6.523 0 0 0 2.886-3.626 13.11 13.11 0 0 1-4.16 1.588A6.574 6.574 0 0 0 22.154 3c-3.632 0-6.556 2.948-6.556 6.562 0 .52.044 1.02.152 1.496-5.454-.266-10.28-2.88-13.522-6.862a6.605 6.605 0 0 0-.898 3.316 6.57 6.57 0 0 0 2.914 5.452 6.479 6.479 0 0 1-2.964-.808v.072c0 3.188 2.274 5.836 5.256 6.446a6.548 6.548 0 0 1-1.72.216 5.8 5.8 0 0 1-1.242-.112c.85 2.598 3.262 4.508 6.13 4.57a13.182 13.182 0 0 1-8.134 2.798c-.538 0-1.054-.024-1.57-.09A18.469 18.469 0 0 0 10.064 29c12.072 0 18.672-10 18.672-18.668 0-.29-.01-.57-.024-.848A13.087 13.087 0 0 0 32 6.078z" style="fill:var(--color1, #f4f4fd)"/>
    </symbol>
    <symbol id="icon-facebook-1" viewBox="0 0 32 32">
      <path  d="M21.329 5.313h2.921V.225C23.746.156 22.013 0 19.994 0c-4.212 0-7.097 2.649-7.097 7.519V12H8.249v5.688h4.648V32h5.699V17.689h4.46l.708-5.688h-5.169V8.082c.001-1.644.444-2.769 2.735-2.769z" style="fill:var(--color1, #f4f4fd)"/>
    </symbol>
    <symbol id="icon-linkedin-1" viewBox="0 0 32 32">
      <path d="M31.992 32v-.001H32V20.263c0-5.741-1.236-10.164-7.948-10.164-3.227 0-5.392 1.771-6.276 3.449h-.093v-2.913h-6.364v21.364h6.627V21.42c0-2.785.528-5.479 3.977-5.479 3.399 0 3.449 3.179 3.449 5.657v10.401h6.62zM.528 10.636h6.635V32H.528V10.636zM3.843 0C1.722 0 0 1.721 0 3.843s1.721 3.879 3.843 3.879c2.121 0 3.843-1.757 3.843-3.879A3.846 3.846 0 0 0 3.843 0z" style="fill:var(--color1, #f4f4fd)"/>
    </symbol>
    <symbol id="icon-quill" viewBox="0 0 32 32">
      <path d="M0 32C4 20 14.469 0 32 0c-8.219 6.594-12 22-18 22H8L2 32H0z"/>
    </symbol>
      <symbol id="icon-astronaut-1" viewBox="0 0 32 32">
      <path d="M31.974 4.524a.534.534 0 0 0-.43-.363l-1.91-.278-.855-1.731c-.179-.365-.777-.365-.956 0l-.855 1.731-1.91.278a.535.535 0 0 0-.296.91l1.383 1.348-.326 1.903c-.034.2.048.402.212.522a.53.53 0 0 0 .562.04l1.709-.899 1.709.899a.536.536 0 0 0 .775-.563l-.326-1.903 1.383-1.348a.536.536 0 0 0 .135-.547zm-2.463 1.327a.534.534 0 0 0-.153.472l.191 1.114-1-.526a.533.533 0 0 0-.498 0l-1.001.526.191-1.114a.534.534 0 0 0-.153-.472l-.81-.789 1.119-.163a.532.532 0 0 0 .402-.292l.5-1.013.5 1.013a.535.535 0 0 0 .402.292l1.119.163-.809.789zM26.134 20.522h-1.067v1.067h1.067v-1.067zM26.134 22.656h-1.067v1.067h1.067v-1.067zM27.2 21.589h-1.067v1.067H27.2v-1.067zM25.067 21.589H24v1.067h1.067v-1.067zM22.4 26.389h-1.067v1.067H22.4v-1.067zM22.4 28.522h-1.067v1.067H22.4v-1.067zM23.467 27.456H22.4v1.067h1.067v-1.067zM21.333 27.456h-1.067v1.067h1.067v-1.067zM16 24.256h-1.067v1.067H16v-1.067zM16 26.389h-1.067v1.067H16v-1.067zM17.067 25.322H16v1.067h1.067v-1.067zM14.933 25.322h-1.067v1.067h1.067v-1.067zM5.867 6.122H4.8v1.067h1.067V6.122zM5.867 8.255H4.8v1.067h1.067V8.255z" style="fill:var(--color1, #4d5ae5)"/>
      <path d="M6.933 7.189H5.866v1.067h1.067V7.189zM4.8 7.189H3.733v1.067H4.8V7.189z" style="fill:var(--color1, #4d5ae5)"/>
      <path d="M24.715 14.159a1.775 1.775 0 0 0-1.188-.705 1.778 1.778 0 0 0-1.34.352l-1.252.96-1.898 1.417-1.358-.541c2.421-1.086 4.114-3.508 4.114-6.32 0-3.823-3.123-6.933-6.961-6.933s-6.961 3.11-6.961 6.933a6.86 6.86 0 0 0 1.12 3.758l-2.764-.024h-.005c-.009 0-.015.004-.023.005a.515.515 0 0 0-.155.031l-.038.013c-.006.003-.013.003-.019.006l-3.233 1.596-.001.001-1.893.911a.397.397 0 0 0-.063.035 1.779 1.779 0 0 0-.598 2.295c.22.429.595.745 1.056.889a1.776 1.776 0 0 0 1.378-.128l1.388-.738 2.264-1.169 1.357-.008L2.2 22.211l-.002.001-1.339 1.333c-.316.315-.49.732-.49 1.178s.174.863.49 1.179c.325.323.752.485 1.179.485s.854-.162 1.18-.485l1.314-1.309 1.741-1.3.901.897-1.762 1.754-.002.001-1.339 1.333c-.316.315-.49.732-.49 1.178s.174.863.49 1.179c.325.323.753.485 1.18.485s.855-.162 1.18-.485l3.482-3.467.001-.002 1.01-1-.004-.004c.006-.006.015-.009.022-.015l5.166-5.658 3.471.494a.52.52 0 0 0 .262-.033c.018-.006.033-.015.05-.023.019-.01.039-.015.058-.027l3.213-2.133c.012-.008.018-.021.029-.029.013-.01.029-.014.041-.026l1.271-1.191c.662-.62.753-1.635.212-2.362zM2.13 17.77a.714.714 0 0 1-.558.052.717.717 0 0 1-.213-1.26l1.314-.632.449 1.313-.992.527zm3.498-1.828-1.548.8-.439-1.283 2.027-1.001-.04 1.484zm15.099-6.62a5.79 5.79 0 0 1-.599 2.559l-4.181-1.899a1.863 1.863 0 0 0-.788-1.388l1.464-4.86c2.378.756 4.105 2.974 4.105 5.588zm-11.789 0c0-3.235 2.644-5.867 5.894-5.867.253 0 .5.021.745.052l-1.432 4.754c-.019-.001-.037-.006-.057-.006-1.033 0-1.873.837-1.873 1.867s.84 1.867 1.873 1.867c.694 0 1.294-.383 1.618-.945l3.862 1.755a5.894 5.894 0 0 1-4.737 2.39c-3.25 0-5.894-2.632-5.894-5.867zm5.956.8c0 .441-.362.8-.806.8s-.806-.359-.806-.8c0-.441.362-.8.806-.8s.806.359.806.8zM2.465 25.146a.608.608 0 0 1-.854.001.592.592 0 0 1 0-.844l.962-.958.851.848-.959.955zm3.214 3.734a.608.608 0 0 1-.855.001.592.592 0 0 1 0-.844l.963-.959.852.848-.96.955zm3.481-3.469-.002.001-1.765 1.76-.852-.848 1.763-1.755.002-.001c.04-.04.065-.088.09-.135.007-.014.02-.026.026-.04.017-.041.019-.085.026-.129.003-.025.014-.047.014-.073 0-.036-.013-.07-.02-.106-.006-.032-.006-.065-.019-.095a.55.55 0 0 0-.091-.138c-.01-.012-.014-.027-.025-.038h-.001l-.001-.002-1.607-1.6c-.017-.017-.039-.024-.058-.038a.507.507 0 0 0-.087-.058.515.515 0 0 0-.093-.033.507.507 0 0 0-.103-.02.5.5 0 0 0-.095.005.53.53 0 0 0-.104.02.477.477 0 0 0-.094.045c-.02.011-.042.015-.061.029L4.23 23.486l-.901-.897 2.399-2.386 4.361 4.289-.928.919zm6.819-7.017c-.015-.002-.03.004-.045.003a.556.556 0 0 0-.3.075.492.492 0 0 0-.083.061c-.013.011-.028.017-.04.029l-4.698 5.146-4.328-4.257 2.833-2.818a.534.534 0 0 0-.379-.911v-.001l-2.219.013.028-1.607 3.104.027a6.947 6.947 0 0 0 4.981 2.101c.437 0 .864-.045 1.279-.123.04.032.079.065.13.085l2.41.96.152.758.178.885-3.003-.427zm4.041.178-.313-1.558 1.446-1.08.947 1.257-2.08 1.381zm3.754-2.831-.838.785-.931-1.236.831-.637a.735.735 0 0 1 .543-.143.718.718 0 0 1 .48.284.713.713 0 0 1-.085.947z" style="fill:var(--color2, #2e2f42)"/>
      <path d="m13.602 18.544-2.143-2.133a.534.534 0 0 0-.753 0l-2.142 2.133a.537.537 0 0 0 0 .756l2.142 2.133a.536.536 0 0 0 .753 0l2.143-2.133a.535.535 0 0 0 0-.756zm-2.519 1.759-1.387-1.381 1.387-1.381 1.387 1.381-1.387 1.381zM17.164 5.071l-.258 1.036c.071.018 1.738.452 1.738 2.149h1.067c0-2.017-1.666-2.965-2.547-3.185zM19.711 9.322h-1.067v1.067h1.067V9.322z" style="fill:var(--color2, #2e2f42)"/>
    </symbol>
    <symbol id="icon-clock-1" viewBox="0 0 32 32">
      <path d="M31.297 15.301C31.295 6.849 24.442-.002 15.989 0S.686 6.855.688 15.308a15.304 15.304 0 0 0 10.649 14.576.662.662 0 0 0 .529-.065.637.637 0 0 0 .283-.356l3.865-12.25a1.912 1.912 0 1 0-.84-3.635l-5.106-5.107a.637.637 0 0 0-.902.902l5.103 5.109a1.876 1.876 0 0 0 .536 2.309l-3.683 11.673C3.844 25.783.118 17.71 2.799 10.432S13.553-.572 20.831 2.109c7.278 2.681 11.004 10.754 8.323 18.032a14.042 14.042 0 0 1-7.462 7.973l-.398-1.874a.637.637 0 0 0-1.049-.344l-3.837 3.426a.637.637 0 0 0 .231 1.084l4.899 1.564a.638.638 0 0 0 .819-.74l-.391-1.839a15.255 15.255 0 0 0 9.329-14.089zm-15.305-.637a.638.638 0 1 1 0 1.277.638.638 0 0 1 0-1.277zm2.101 14.864 2.184-1.948.603 2.84-2.787-.892z" style="fill:var(--color2, #2e2f42)"/>
      <path d="M15.354 3.185V4.46a.638.638 0 1 0 1.276 0V3.185a.638.638 0 0 0-1.276 0zM3.876 14.664a.638.638 0 0 0 0 1.276h1.275a.638.638 0 1 0 0-1.276H3.876zM28.108 15.939a.638.638 0 1 0 0-1.276h-1.275a.638.638 0 0 0 0 1.276h1.275z" style="fill:var(--color1, #4d5ae5)"/>
    </symbol>
    <symbol id="icon-diagram-1" viewBox="0 0 32 32">
      <path  d="M14.926 14.965h1.066v4.798h-1.066v-4.797zM19.19 17.097h1.066v2.665H19.19v-2.665zM10.661 18.696h1.066v1.066h-1.066v-1.066zM7.463 18.163h1.066v1.599H7.463v-1.599z" style="fill:var(--color1, #4d5ae5)"/>
      <path  d="M1.599 28.291h25.587a1.6 1.6 0 0 0 1.599-1.599V24.56a1.6 1.6 0 0 0-1.599-1.599h-.533V9.668L29.681 6.8a1.608 1.608 0 1 0-.746-.763L26.654 8.2V6.97a1.6 1.6 0 0 0-1.599-1.599H3.733A1.6 1.6 0 0 0 2.134 6.97v15.992h-.533a1.6 1.6 0 0 0-1.599 1.599v2.132a1.6 1.6 0 0 0 1.599 1.599zM30.384 4.837a.533.533 0 1 1 0 1.067.533.533 0 0 1 0-1.067zM3.198 6.969c0-.294.239-.533.533-.533h21.322c.294 0 .533.239.533.533v2.239l-1.066 1.013V8.035a.533.533 0 0 0-.533-.533H4.797a.533.533 0 0 0-.533.533v13.326c0 .294.239.533.533.533h19.19a.533.533 0 0 0 .533-.533v-9.674l1.066-1.01v12.284H3.198V6.969zm4.798 6.93a1.598 1.598 0 1 0 1.107 2.749l1.853.93a.532.532 0 0 0 .636-.123l3.939-4.431 3.872 2.901a.533.533 0 0 0 .686-.039l3.365-3.188v8.131H5.33V8.569h18.124v2.66l-3.771 3.572-3.904-2.927a.533.533 0 0 0-.718.072l-3.993 4.493-1.493-.746c.011-.064.018-.129.02-.193a1.6 1.6 0 0 0-1.599-1.599zm.533 1.599a.533.533 0 1 1-1.067 0 .533.533 0 0 1 1.067 0zm3.198 8.529h5.331v.533a.533.533 0 0 1-.533.533h-4.264a.533.533 0 0 1-.533-.533v-.533zm-10.661.533c0-.294.239-.533.533-.533h9.062v.533a1.6 1.6 0 0 0 1.599 1.599h4.264a1.6 1.6 0 0 0 1.599-1.599v-.533h9.062c.294 0 .533.239.533.533v2.132a.533.533 0 0 1-.533.533H1.598a.533.533 0 0 1-.533-.533V24.56z" style="fill:var(--color2, #2e2f42)"/>
    </symbol>
    <symbol id="icon-antenna-1" viewBox="0 0 32 32">
      <path d="m30.773 22.098-8.443-8.505.937-4.615c.242.094.499.144.758.146h.006a2.159 2.159 0 1 0-2.008-1.435l-4.96.605L8.972.161a.534.534 0 0 0-.377-.16.532.532 0 0 0-.373.155L6.709 1.66a.534.534 0 0 0 0 .754l.814.826a14.943 14.943 0 0 0 2.519 17.663.513.513 0 0 0 .146.098c-.034.18-.051.364-.052.547v6.187h-6.4a2.67 2.67 0 0 0-2.667 2.667v1.067c0 .295.239.533.533.533h24.533a.533.533 0 0 0 .533-.533v-1.067a2.67 2.67 0 0 0-2.667-2.667h-6.4v-2.742a15.09 15.09 0 0 0 3.049.32 14.854 14.854 0 0 0 7.04-1.783l.818.823a.534.534 0 0 0 .377.16.532.532 0 0 0 .373-.155l1.513-1.504a.534.534 0 0 0 0-.754zM23.28 6.233a1.067 1.067 0 1 1 .753 1.822h-.003a1.067 1.067 0 0 1-.747-1.823h-.002zm-1.256 3.505-.598 2.946-1.175-1.182 1.774-1.763zm-.605-.902-1.92 1.909-1.485-1.493 3.405-.415zM24.004 28.8a1.6 1.6 0 0 1 1.6 1.6v.533H2.137V30.4a1.6 1.6 0 0 1 1.6-1.6h20.267zm-7.467-2.133v1.067h-5.333v-1.067h5.333zM11.204 25.6v-4.053c0-1.294 1.196-2.347 2.667-2.347s2.667 1.053 2.667 2.347V25.6h-5.333zm6.4-1.696v-2.357c0-1.882-1.675-3.413-3.733-3.413a3.8 3.8 0 0 0-3.281 1.786A13.87 13.87 0 0 1 8.311 4.033l18.602 18.708a13.818 13.818 0 0 1-9.309 1.163zm11.289-.684L7.836 2.039l.755-.752 7.935 7.98c.004 0 .006.007.01.01l13.115 13.191-.757.752z"/>
      <path d="M13.876 20.267h-.005a1.6 1.6 0 1 0-.004 3.2h.005a1.6 1.6 0 1 0 .004-3.2zm.373 1.978a.534.534 0 0 1-.752-.756.534.534 0 0 1 .373-.155.534.534 0 0 1 .374.911h.005z"/>
    </symbol>
   <symbol id="icon-group" viewBox="0 0 28 32">
      <path  d="m4.085 0 4.771 4.546L0 4.541v22.054h23.149v-8.432l4.766 4.541V.001H4.085zm18.854 17.629L9.411 4.74h13.528v12.889zm-4.2 5.74H3.663V8.536h1.066v13.828h14.01v1.004zM6.67 30.68l.562-1.155h.462l-.814 1.529v.891h-.421v-.891l-.814-1.529h.464l.562 1.155zm2.071-1.155h.1l.914 2.42h-.439l-.196-.567h-.937l-.195.567h-.437l.911-2.42h.279zm-.444 1.522h.709l-.355-1.027-.354 1.027zm2.925-.401c-.018-.023-.036-.046-.053-.068-.062-.082-.11-.161-.145-.238-.034-.078-.052-.157-.052-.239 0-.126.026-.235.078-.326s.126-.161.221-.209c.095-.05.207-.075.334-.075.123 0 .229.025.317.075.09.049.158.114.206.194.049.081.073.17.073.266 0 .076-.014.146-.042.209s-.066.121-.115.173c-.049.052-.105.101-.17.148l-.168.122.479.566c.016-.031.03-.064.043-.098.041-.106.062-.224.062-.354h.346c0 .117-.012.229-.035.334-.022.105-.058.203-.108.293-.02.037-.043.073-.069.107l.355.418h-.464l-.141-.165c-.076.058-.159.103-.248.136-.117.042-.243.063-.376.063-.161 0-.3-.029-.417-.088s-.208-.14-.273-.243c-.063-.103-.095-.221-.095-.354 0-.099.021-.185.061-.259.041-.075.097-.145.168-.209.066-.059.14-.119.224-.178zm.198.243-.05.036c-.059.048-.103.094-.131.138-.028.043-.046.083-.055.12s-.013.069-.013.096c0 .071.015.135.045.193.031.058.076.104.135.138.06.033.132.05.218.05.092 0 .181-.02.268-.061.043-.021.084-.047.123-.076l-.539-.633zm.096-.442c-.009-.012-.019-.024-.028-.035-.044-.058-.079-.112-.105-.165-.025-.053-.038-.105-.038-.155 0-.052.009-.099.028-.141.02-.043.049-.078.088-.103.039-.027.086-.04.143-.04.081 0 .144.024.188.073s.067.102.067.16c0 .068-.015.124-.045.17-.03.044-.08.09-.15.136l-.148.1zm4.234.71h-.416c-.012.105-.038.194-.076.268-.038.072-.094.127-.168.165-.073.038-.169.056-.288.056-.098 0-.181-.019-.251-.058s-.127-.094-.173-.165c-.044-.071-.078-.156-.1-.254-.021-.1-.032-.211-.032-.332v-.204c0-.129.012-.243.035-.342.024-.101.06-.186.108-.254s.107-.121.178-.156.154-.053.249-.053c.116 0 .211.02.283.06.072.039.126.095.163.17.038.074.062.163.073.268h.416c-.017-.162-.062-.305-.136-.43-.073-.125-.176-.223-.309-.294s-.296-.106-.489-.106c-.152 0-.289.027-.411.08-.121.053-.224.13-.311.231-.086.1-.153.22-.2.361-.045.141-.068.298-.068.472v.201c0 .174.022.331.067.472.045.141.111.261.196.361.085.099.188.175.307.229.12.053.254.08.404.08.195 0 .361-.035.497-.106s.242-.168.317-.291c.075-.124.12-.265.133-.424zm2.309-.356v-.133c0-.183-.024-.346-.073-.49-.048-.145-.116-.269-.204-.371-.089-.103-.194-.181-.317-.234-.123-.054-.259-.081-.409-.081-.148 0-.284.027-.407.081-.122.053-.228.131-.317.234-.089.102-.157.226-.206.371-.049.144-.073.308-.073.49v.133c0 .183.024.347.073.492.05.145.12.269.209.371s.196.18.317.234c.123.053.259.08.407.08.15 0 .286-.027.409-.08.123-.054.228-.132.316-.234.089-.102.157-.226.204-.371s.072-.309.072-.492zm-.417-.136v.136c0 .135-.013.255-.04.359-.025.104-.063.192-.113.264-.05.071-.111.125-.183.161-.072.035-.155.053-.248.053-.092 0-.174-.018-.246-.053-.072-.037-.134-.09-.186-.161-.051-.072-.09-.16-.116-.264s-.04-.224-.04-.359v-.136c0-.135.013-.254.04-.357.027-.104.065-.191.115-.261.051-.071.112-.124.184-.16.072-.037.154-.055.246-.055s.175.018.248.055c.073.035.135.089.184.16.051.07.089.157.115.261.027.103.04.222.04.357z"/>
    </symbol>
    <symbol id="icon-Logo" viewBox="0 0 59 32">
      <path  d="M28.636 3.391h-.078c-.12-.007-.24-.01-.36-.013h-.26c-.227 0-.458.006-.688.017-.017-.001-.035-.001-.052 0-2.082.118-4.123.638-6.009 1.533l-.247.119v12.652l.578-.196c.507-.174 1.048-.331 1.607-.477 1.512-.388 3.065-.595 4.626-.615v1.662c-.207.002-.408.007-.609.017h-.048c-1.201.066-2.393.249-3.559.546-1.477.37-2.901.925-4.24 1.652V4.061c1.39-.811 2.888-1.42 4.448-1.809 1.37-.354 2.778-.535 4.192-.541h.244c.292.007.577.02.844.041.705.049 1.404.161 2.089.333v1.636c-.666-.155-1.342-.257-2.024-.305-.014-.001-.028-.002-.041-.004-.141-.012-.282-.024-.414-.024zm2.88 1.673c.363.028.739.041 1.119.041 1.487-.005 2.967-.195 4.407-.565 1.476-.371 2.9-.927 4.238-1.654v15.938c-1.391.81-2.889 1.419-4.449 1.809-1.37.352-2.778.533-4.192.539-1.072.009-2.14-.117-3.18-.375V4.756c.246.057.499.109.756.153.422.071.867.123 1.301.155zm8.111.123-.578.195c-.532.179-1.068.339-1.608.481-1.57.403-3.183.61-4.804.616-.377 0-.724-.01-1.06-.032l-.461-.03v13.015l.396.035c.367.032.746.048 1.128.048 1.276-.005 2.547-.17 3.783-.49 1.018-.255 2.008-.611 2.956-1.062l.247-.119V5.188zM20.421 25.836c-.083-.086-.183-.154-.294-.199s-.23-.066-.349-.061c-.127-.002-.253.022-.372.07-.108.043-.207.108-.289.19-.082.083-.145.182-.186.291-.045.114-.068.236-.067.359v2.168c-.005.153.024.305.085.445.051.111.125.21.217.291.087.073.188.126.298.154.105.03.214.045.324.045.121.001.24-.025.35-.076.108-.047.207-.116.289-.201.08-.084.145-.183.189-.291.046-.109.07-.227.069-.346v-.243h-.567v.193c.002.066-.01.132-.033.193-.018.046-.047.088-.082.122-.035.028-.075.05-.119.062-.038.013-.078.02-.119.02-.051.006-.102-.002-.149-.022s-.087-.053-.117-.094c-.053-.087-.08-.188-.075-.291v-2.021c-.004-.112.02-.223.069-.324.029-.046.071-.082.12-.105s.104-.032.157-.025c.049-.002.097.008.141.03s.082.053.112.092c.063.083.097.186.094.291v.187h.561v-.221c.001-.13-.022-.258-.069-.379-.042-.114-.106-.217-.189-.305zM23.788 25.811c-.181-.153-.409-.237-.645-.238-.115 0-.23.021-.338.061-.11.039-.212.1-.299.177-.094.084-.169.188-.22.304-.057.132-.085.276-.082.42v2.079c-.004.146.024.292.082.426.051.112.126.211.22.291.087.08.188.143.299.183.108.04.223.061.338.061s.23-.021.338-.061c.113-.041.217-.103.306-.183.09-.081.163-.18.214-.291.058-.134.086-.279.082-.426v-2.079c.003-.144-.025-.288-.082-.42-.05-.115-.123-.218-.214-.304zm-.265 2.803c.005.055-.003.111-.022.163s-.05.099-.09.138c-.075.063-.169.097-.267.097s-.192-.034-.267-.097c-.04-.038-.071-.085-.09-.138s-.027-.108-.022-.163v-2.079c-.005-.055.003-.111.022-.163s.05-.099.09-.138c.075-.063.169-.097.267-.097s.192.034.267.097c.04.038.071.085.09.138s.027.108.022.163v2.079zM28.21 29.543v-3.936h-.545l-.716 2.084h-.01l-.721-2.084h-.539v3.936h.562v-2.395h.01l.551 1.693h.28l.555-1.693h.01v2.395h.562zM31.405 25.882c-.087-.097-.196-.171-.318-.215-.132-.043-.269-.063-.408-.061h-.835v3.936h.561v-1.537h.289c.175.008.349-.029.506-.108.128-.071.234-.175.308-.301.065-.105.109-.221.129-.343.022-.148.032-.298.03-.448.006-.189-.013-.378-.055-.562-.037-.136-.108-.261-.207-.362zm-.289 1.2c-.002.071-.02.141-.052.205-.032.061-.083.109-.145.138-.083.037-.174.054-.265.049h-.256v-1.338h.289c.087-.004.174.013.253.049.058.033.104.084.132.145.031.069.047.144.049.219v.262c0 .092.006.186 0 .27h-.006zM34.062 25.606h-.46l-.867 3.936h.561l.165-.846h.765l.165.846h.561l-.889-3.936zm-.518 2.555.276-1.427h.01l.275 1.427h-.561zM37.686 27.978h-.01l-.847-2.371h-.539v3.936h.561v-2.367h.012l.857 2.367h.528v-3.936h-.561v2.371zM41.113 25.606l-.451 1.565h-.012l-.451-1.565h-.594l.77 2.273v1.664h.561v-1.664l.77-2.273h-.594zM18.857 30.654h.27v.759h.184v-.759h.269v-.155h-.723v.155zM21.13 30.498l-.354.914h.195l.075-.208h.364l.078.208h.2l-.363-.914h-.195zm-.029.553.124-.339.124.339H21.1zM23.376 31.076h.211v.118c-.062.049-.138.076-.217.077-.037.002-.074-.005-.107-.02s-.063-.038-.086-.067c-.048-.07-.072-.154-.068-.238 0-.203.088-.305.263-.305.046-.005.092.008.13.034s.065.066.077.111l.181-.035c-.039-.179-.168-.269-.387-.269-.117-.003-.232.039-.319.118-.046.045-.082.1-.104.161s-.032.126-.027.19c-.005.125.036.248.117.343.045.046.099.082.159.105s.124.033.188.029c.143.004.282-.048.387-.145v-.36h-.396v.154zM25.67 30.498h-.185v.914h.64v-.155h-.455v-.759zM27.61 30.498h-.185v.914h.185v-.914zM29.507 31.109l-.374-.61h-.179v.914h.172v-.597l.367.597h.184v-.914h-.169v.61zM31.221 31.01h.455v-.155h-.455v-.201h.49v-.155h-.675v.914h.694v-.155h-.509v-.247zM35.378 30.859h-.36v-.36h-.184v.914h.184v-.4h.36v.4h.184v-.914h-.184v.36zM37.103 31.01h.457v-.155h-.457v-.201h.492v-.155h-.675v.914h.692v-.155h-.509v-.247zM39.442 31.01c.159-.025.24-.109.24-.254.005-.039-.001-.078-.017-.114s-.041-.067-.073-.089c-.083-.042-.175-.06-.267-.054h-.387v.914h.184v-.382h.036c.039-.002.078.005.114.02.027.017.049.04.065.067l.2.291h.22l-.111-.179c-.049-.088-.119-.163-.202-.219zm-.185-.126h-.136v-.23h.145c.063-.005.126.002.187.022.013.012.024.026.031.043s.01.034.009.052c-.001.018-.006.035-.014.051s-.02.029-.035.04c-.06.018-.124.026-.187.022zM41.206 31.01h.455v-.155h-.455v-.201h.492v-.155h-.676v.914h.694v-.155h-.509v-.247z"/>
    </symbol>
    <symbol id="icon-Logo-2" viewBox="0 0 59 32">
      <path  d="M21.034 28.128c.009 0 .018.002.027.005s.016.008.022.014l.126.119c-.098.096-.219.173-.355.225-.159.057-.331.085-.503.081-.162.003-.323-.023-.473-.076-.135-.048-.257-.121-.357-.213-.102-.095-.18-.207-.23-.329-.055-.136-.082-.278-.08-.422-.002-.144.027-.288.087-.423.055-.122.138-.234.244-.329.108-.093.237-.166.379-.214.155-.051.321-.077.487-.076.155-.003.309.02.453.069.125.046.24.111.339.19l-.106.127c-.007.009-.016.017-.027.023-.012.007-.028.011-.043.009-.016-.001-.032-.006-.046-.014l-.057-.034-.079-.043c-.034-.016-.069-.03-.106-.042-.047-.014-.095-.026-.144-.034-.062-.01-.125-.014-.188-.014-.12-.001-.239.018-.35.057-.104.036-.197.09-.274.159-.079.073-.139.16-.178.253-.044.107-.066.22-.065.334-.002.116.02.23.065.34.038.093.098.179.175.252.072.068.162.122.262.156.103.036.213.055.325.054.064.001.129-.003.192-.011.104-.011.204-.042.292-.09.044-.025.086-.053.125-.084.016-.013.038-.021.06-.022zM24.678 27.532c.002.143-.027.285-.085.419-.051.122-.132.233-.238.326s-.232.166-.373.214c-.309.101-.65.101-.959 0-.14-.049-.266-.122-.371-.214-.105-.095-.187-.206-.24-.329-.114-.271-.114-.568 0-.84.054-.122.135-.235.24-.33.106-.09.232-.16.371-.206.308-.102.651-.102.959 0 .14.049.267.122.372.214.104.094.185.204.238.325.058.135.087.278.085.422zm-.331 0c.002-.114-.018-.228-.06-.337-.035-.093-.093-.179-.169-.252-.074-.069-.165-.124-.267-.159-.224-.074-.473-.074-.697 0-.102.035-.193.09-.267.159-.077.073-.135.159-.17.252-.08.219-.08.454 0 .674.036.093.094.179.17.252.074.069.165.123.267.158.225.072.472.072.697 0 .102-.035.192-.089.267-.158.076-.073.133-.159.169-.252.042-.109.063-.223.06-.337zM27.164 27.885l.033.076c.013-.027.024-.051.036-.076s.026-.05.041-.074l.806-1.252c.016-.022.03-.035.046-.039.021-.006.044-.008.066-.007h.238v2.036h-.282v-1.56c-.002-.023-.002-.047 0-.07l-.811 1.269c-.01.019-.027.035-.047.046s-.045.017-.069.017h-.046c-.025 0-.049-.006-.069-.017s-.037-.027-.047-.047l-.834-1.277V28.545h-.273v-2.032h.238c.022-.001.045.001.066.007.02.008.035.022.044.039l.823 1.253c.016.023.03.047.041.073zM30.197 27.784v.763h-.316v-2.034h.704c.133-.002.265.013.393.044.102.025.197.068.278.127.07.055.124.123.158.199.037.083.055.171.054.26.001.089-.018.178-.058.26-.038.078-.096.148-.17.203-.081.061-.176.107-.279.135-.123.034-.251.049-.38.047l-.382-.005zm0-.218h.382c.083.001.165-.01.244-.031.065-.019.125-.049.177-.088.047-.037.084-.083.107-.135.026-.054.039-.113.038-.171.004-.057-.007-.113-.032-.166s-.062-.1-.11-.139c-.12-.08-.272-.119-.424-.109h-.382v.838zM34.437 28.549h-.249c-.025.001-.05-.006-.069-.019-.018-.013-.032-.029-.041-.047l-.215-.492h-1.077l-.222.492c-.008.018-.022.034-.039.046-.02.014-.045.021-.071.02h-.249l.946-2.036h.328l.959 2.036zm-1.562-.756h.89l-.375-.829c-.029-.062-.052-.126-.071-.191l-.036.106c-.011.032-.024.062-.035.086l-.372.828zM35.8 26.522c.019.009.035.021.047.036l1.38 1.535v-1.58h.282v2.036h-.158c-.022.001-.045-.004-.065-.012-.02-.01-.037-.023-.05-.038l-1.379-1.534c.002.023.002.047 0 .07v1.514h-.282v-2.036h.167c.02 0 .039.003.057.009zM39.834 27.739v.809h-.316v-.809l-.872-1.226h.282c.024-.001.048.005.068.018.017.013.032.029.043.046l.546.791c.022.034.041.065.057.094s.028.058.039.086l.041-.088c.015-.032.033-.063.054-.093l.538-.797c.011-.016.025-.03.041-.043.019-.014.043-.021.068-.02h.285l-.874 1.232zM27.008 23.095c.137.015.276.027.416.038 2.128-.813 3.929-2.145 5.176-3.828s1.887-3.643 1.838-5.634l-2.346-2.004c.477 2.12.254 4.313-.644 6.331s-2.436 3.783-4.441 5.098z" />
      <path  d="m26.17 23.002.063.011c2.143-1.31 3.776-3.138 4.69-5.25s1.064-4.408.433-6.594l-3.341-2.854c1.351 2.346 1.895 4.972 1.568 7.572s-1.511 5.067-3.414 7.115zM37.5 16.024c-.568 2.188-1.946 4.162-3.931 5.628-.58.43-1.205.814-1.868 1.145 1.616-.406 3.102-1.123 4.342-2.097s2.202-2.178 2.812-3.52L37.5 16.024z" style="fill:var(--color1, #8e8f99)"/>
      <path  d="m36.968 15.702-1.929-1.648c-.037 1.879-.662 3.716-1.811 5.318s-2.779 2.914-4.721 3.796h.009c.433 0 .865-.022 1.295-.066 1.815-.633 3.418-1.64 4.667-2.931s2.104-2.826 2.489-4.469zM26.449 7.112l-2.301-1.969c-2.057.679-3.827 1.873-5.077 3.426s-1.922 3.392-1.928 5.276c.008 2.082.828 4.103 2.331 5.742s3.603 2.803 5.967 3.308c2.111-2.197 3.346-4.912 3.528-7.75s-.701-5.652-2.52-8.032zM42.286 15.399c-.008-2.47-1.161-4.838-3.205-6.585s-4.815-2.731-7.707-2.739c-1.336-.001-2.661.21-3.907.621l14.09 12.039c.482-1.064.73-2.196.729-3.337z"/>
    </symbol>
    <symbol id="icon-Logo-3" viewBox="0 0 59 32">
      <path d="M13.759 12.296h-.002c-1.363 0-2.468.996-2.468 2.225v.002c0 1.229 1.105 2.225 2.468 2.225h.002c1.363 0 2.468-.996 2.468-2.225v-.002c0-1.229-1.105-2.225-2.468-2.225zM31.978 11.585c-.004-1.707-.758-3.343-2.096-4.551s-3.153-1.887-5.047-1.891c-1.894.003-3.709.683-5.049 1.89s-2.094 2.844-2.098 4.552v9.414s14.288-1.435 14.289-9.412v-.001zM6.286 24.088c.003 1.188.528 2.326 1.46 3.166s2.194 1.314 3.511 1.317c1.317-.003 2.579-.477 3.511-1.317s1.456-1.978 1.46-3.165v-6.55s-9.942.999-9.942 6.549zm4.971 1.174c-.258 0-.509-.069-.723-.198s-.381-.312-.479-.527-.124-.45-.074-.678c.05-.228.174-.437.356-.601s.414-.276.666-.321c.252-.045.514-.022.752.067s.441.239.584.432c.143.193.219.42.219.652.001.154-.033.308-.098.451s-.161.273-.282.382c-.121.109-.265.196-.423.256s-.328.09-.499.09v-.004zM20.348 23.151v2.438h-.502v-2.438h.502zm.971 1.042v.392h-1.108v-.392h1.108zm.117-1.042v.393h-1.225v-.393h1.225zm2.294 1.162v.116c0 .185-.025.352-.075.499s-.121.273-.213.377c-.091.103-.201.181-.328.236-.126.055-.266.082-.42.082-.153 0-.293-.027-.42-.082-.126-.055-.235-.133-.328-.236-.093-.104-.165-.229-.216-.377-.05-.147-.075-.314-.075-.499v-.116c0-.186.025-.353.075-.499.05-.147.121-.273.213-.377.093-.104.202-.183.328-.238.127-.055.267-.082.42-.082.154 0 .294.027.42.082.127.055.237.134.328.238.093.104.164.229.214.377.051.146.077.312.077.499zm-.508.116v-.119c0-.13-.012-.243-.035-.342s-.058-.181-.104-.248-.102-.117-.167-.151c-.066-.035-.141-.052-.226-.052s-.16.017-.226.052c-.065.034-.12.084-.166.151-.045.067-.079.15-.102.248s-.035.212-.035.342v.119c0 .128.012.242.035.341.023.098.058.181.104.249.046.067.102.118.167.152s.141.052.226.052c.085 0 .16-.017.226-.052s.121-.085.166-.152c.045-.068.079-.151.102-.249.023-.099.035-.213.035-.341zm2.138.522c0-.044-.007-.083-.02-.117-.012-.036-.036-.068-.07-.097-.035-.03-.083-.06-.146-.089s-.143-.059-.243-.09c-.11-.036-.215-.076-.315-.121-.098-.045-.185-.096-.261-.156-.075-.06-.134-.13-.177-.209-.042-.079-.064-.171-.064-.276 0-.102.022-.194.067-.276.045-.084.107-.155.188-.214.08-.06.175-.107.285-.139.11-.032.232-.049.363-.049.18 0 .337.032.47.097s.238.154.311.266c.075.113.112.242.112.387h-.499c0-.071-.015-.134-.045-.188-.029-.055-.074-.098-.134-.129-.059-.031-.134-.047-.224-.047-.087 0-.16.013-.218.04-.058.026-.102.061-.131.105-.029.044-.044.093-.044.147 0 .041.01.079.03.112.021.034.052.065.094.094s.092.056.152.082c.06.026.13.051.209.075.133.04.249.085.35.136.102.05.186.107.254.169s.119.133.154.213c.035.079.052.169.052.27 0 .106-.021.201-.062.285s-.101.155-.179.213c-.078.058-.171.102-.28.132s-.229.045-.363.045c-.12 0-.239-.016-.357-.047-.117-.032-.224-.081-.32-.146-.095-.065-.171-.147-.228-.248s-.085-.219-.085-.357h.504c0 .076.012.14.035.192s.056.095.099.127c.044.032.095.056.154.07.06.015.126.022.198.022.087 0 .158-.012.214-.037.057-.025.099-.059.126-.102.028-.044.042-.093.042-.147zm1.934-1.8v2.438h-.501v-2.438h.501zm.75 0v.393h-1.989v-.393h1.989zm1.922 2.046v.392h-1.297v-.392h1.297zm-1.134-2.046v2.438h-.502v-2.438h.502zm.965.993v.382h-1.128v-.382h1.128zm.167-.993v.393h-1.296v-.393h1.296zm.295 0h.909c.186 0 .346.028.48.084.135.056.239.138.311.248s.109.244.109.403c0 .131-.022.243-.067.337-.044.093-.105.17-.186.233-.079.061-.172.11-.28.147l-.159.084h-.79l-.003-.392h.588c.088 0 .161-.016.219-.047s.102-.075.131-.131c.03-.056.045-.12.045-.194 0-.078-.015-.146-.044-.203s-.073-.1-.132-.131-.133-.045-.223-.045h-.407v2.044h-.502V23.15zm1.362 2.438-.556-1.086.531-.003.562 1.066v.023h-.537zm2.637-.869h-.621v-.392h.621c.096 0 .174-.016.234-.047.06-.032.104-.077.132-.134s.042-.121.042-.192c0-.073-.014-.14-.042-.203s-.072-.113-.132-.151-.138-.057-.234-.057h-.447v2.044h-.502V23.15h.949c.191 0 .354.035.49.104.137.068.242.162.315.283s.109.258.109.413c0 .157-.036.294-.109.408s-.177.204-.315.266c-.136.062-.3.094-.49.094zm2.896.477v.392h-1.297v-.392h1.297zm-1.133-2.046v2.438h-.502v-2.438h.502zm.964.993v.382h-1.128v-.382h1.128zm.168-.993v.393h-1.296v-.393h1.296zm1.418 0v2.438h-.501v-2.438h.501zm.75 0v.393h-1.989v-.393h1.989zm1.921 2.046v.392h-1.297v-.392h1.297zm-1.133-2.046v2.438h-.502v-2.438h.502zm.964.993v.382h-1.128v-.382h1.128zm.168-.993v.393h-1.296v-.393h1.296zm.294 0h.909c.186 0 .347.028.48.084.135.056.239.138.311.248s.109.244.109.403c0 .131-.022.243-.067.337-.044.093-.105.17-.186.233-.079.061-.172.11-.28.147l-.159.084h-.79l-.003-.392h.588c.088 0 .161-.016.219-.047s.102-.075.131-.131c.03-.056.045-.12.045-.194 0-.078-.014-.146-.044-.203s-.073-.1-.132-.131c-.059-.03-.133-.045-.223-.045h-.407v2.044h-.502V23.15zm1.363 2.438-.556-1.086.531-.003.563 1.066v.023h-.537zm2.103-.638c0-.044-.007-.083-.02-.117-.012-.036-.036-.068-.07-.097-.035-.03-.083-.06-.146-.089s-.143-.059-.243-.09c-.111-.036-.215-.076-.315-.121-.098-.045-.185-.096-.261-.156-.075-.06-.134-.13-.178-.209-.042-.079-.064-.171-.064-.276 0-.102.022-.194.067-.276.045-.084.107-.155.188-.214.08-.06.175-.107.285-.139.111-.032.232-.049.363-.049.18 0 .337.032.47.097s.238.154.311.266c.075.113.112.242.112.387h-.499c0-.071-.015-.134-.045-.188-.029-.055-.074-.098-.134-.129-.059-.031-.134-.047-.224-.047-.087 0-.16.013-.218.04-.058.026-.102.061-.131.105-.029.044-.044.093-.044.147 0 .041.01.079.03.112.021.034.052.065.094.094s.092.056.152.082c.06.026.13.051.209.075.133.04.249.085.35.136.102.05.186.107.254.169s.119.133.154.213c.035.079.052.169.052.27 0 .106-.021.201-.062.285s-.101.155-.179.213c-.078.058-.171.102-.28.132s-.229.045-.363.045c-.12 0-.239-.016-.357-.047-.117-.032-.224-.081-.32-.146-.095-.065-.171-.147-.228-.248s-.085-.219-.085-.357h.504c0 .076.012.14.035.192s.056.095.099.127c.044.032.095.056.154.07.06.015.126.022.198.022.087 0 .158-.012.214-.037.057-.025.099-.059.126-.102.028-.044.042-.093.042-.147z"/>
    </symbol>
     <symbol id="icongroup3" viewBox="0 0 67 32">
      <path  d="M33.799 15.249c-.316-.42-.467-.917-.431-1.417v-2.054c0-.63.143-1.108.428-1.435s.776-.49 1.472-.489c.654 0 1.118.139 1.392.418.299.355.445.79.412 1.229v.483h-1.169v-.489c.004-.16-.007-.32-.034-.478-.017-.108-.076-.209-.167-.284-.12-.082-.271-.121-.424-.111-.16-.01-.319.031-.445.117-.102.084-.17.194-.194.313-.034.168-.049.338-.046.508v2.492c-.018.24.033.481.15.7.058.074.139.133.233.17s.199.05.302.039c.15.011.298-.03.414-.113.095-.082.157-.188.174-.303.027-.165.039-.332.036-.499v-.506h1.169v.462c.033.457-.109.911-.404 1.291-.269.305-.726.458-1.399.458s-1.181-.163-1.47-.501zM38.668 15.269c-.295-.32-.443-.786-.443-1.402v-2.16c0-.61.148-1.072.443-1.385s.789-.469 1.482-.468c.688 0 1.179.156 1.474.468.295.313.446.775.446 1.385v2.16c0 .61-.15 1.078-.45 1.4s-.789.483-1.47.483-1.184-.163-1.482-.48zm2.026-.518c.106-.2.154-.42.14-.639v-2.645c.014-.216-.034-.431-.138-.627-.059-.076-.142-.135-.239-.172s-.204-.05-.308-.037c-.105-.013-.212 0-.309.037s-.18.096-.24.172c-.106.196-.155.411-.14.627v2.658c-.015.22.033.439.14.639.068.067.152.121.247.158s.197.056.3.056.206-.019.3-.056c.094-.037.178-.091.247-.158v-.013zM43.476 9.917h1.259l.947 3.986.968-3.986h1.225l.123 5.753h-.906l-.097-3.998-.935 3.998h-.726l-.968-4.013-.09 4.013h-.915l.114-5.753zM49.41 9.917h1.961c1.13 0 1.695.545 1.695 1.634 0 1.043-.595 1.564-1.784 1.563h-.668v2.557h-1.211l.007-5.753zm1.675 2.459c.12.013.241.004.356-.028s.221-.084.31-.154c.139-.194.2-.422.174-.65.006-.175-.013-.351-.058-.522-.017-.057-.048-.111-.089-.158s-.094-.086-.153-.116c-.168-.07-.354-.101-.54-.092h-.47v1.719h.47zM54.812 9.917h1.3l1.334 5.753h-1.128l-.264-1.327h-1.16l-.271 1.327h-1.145l1.334-5.753zm1.111 3.76-.453-2.415-.453 2.415h.906zM58.523 9.917h.847l1.622 3.282V9.917h1.005v5.753h-.806l-1.632-3.426v3.426H58.52l.002-5.753zM64.351 13.477l-1.349-3.552h1.135l.823 2.281.772-2.281h1.111l-1.332 3.552v2.194h-1.162v-2.194zM35.668 18.186v.301h-.988v2.338h-.414v-2.338h-.993v-.301h2.395zM38.764 20.824h-.32c-.032.002-.065-.007-.09-.025-.024-.015-.043-.036-.053-.061l-.286-.627h-1.37l-.286.627c-.008.026-.023.05-.044.071-.025.017-.057.026-.09.025h-.32l1.211-2.639h.421l1.225 2.628zm-2.004-.979h1.143l-.484-1.074c-.036-.081-.066-.164-.09-.249-.017.05-.031.098-.046.14l-.044.111-.479 1.072zM40.851 20.565c.076.003.152.003.228 0 .066-.006.13-.016.194-.031.059-.013.118-.029.174-.048.053-.019.107-.042.162-.065v-.593h-.484c-.012.001-.024-.001-.035-.005s-.021-.009-.03-.016c-.008-.006-.014-.013-.018-.022s-.006-.017-.006-.026v-.203h.939v1.011c-.077.047-.158.089-.242.125-.086.037-.176.067-.269.09-.099.025-.2.043-.303.054-.117.011-.235.017-.353.017-.209.002-.416-.032-.61-.098-.181-.063-.346-.157-.484-.276-.135-.12-.241-.262-.312-.418-.076-.175-.114-.361-.111-.547-.003-.188.034-.375.109-.552.07-.156.176-.299.312-.418.138-.119.303-.212.484-.274.207-.067.427-.101.649-.098.113 0 .225.008.337.023.098.014.195.036.288.067.085.027.166.062.242.104.074.041.145.087.211.138l-.116.163c-.009.015-.023.027-.039.036s-.036.014-.055.014c-.027-.001-.053-.008-.075-.021-.036-.017-.075-.038-.119-.063-.051-.028-.106-.052-.162-.071-.072-.025-.147-.045-.223-.059-.101-.016-.204-.024-.307-.023-.16-.002-.318.023-.467.073-.135.047-.256.118-.356.209-.1.095-.177.206-.225.328-.108.286-.108.594 0 .88.053.124.135.237.242.332.099.091.22.162.353.209.154.046.317.063.479.052zM44.711 20.523h1.322v.301h-1.726v-2.639h.414l-.01 2.338zM47.408 20.824h-.414v-2.639h.414v2.639zM48.948 18.198c.025.012.046.028.063.048l1.77 1.989c-.002-.031-.002-.063 0-.094v-1.966h.361v2.649h-.208c-.031.002-.062-.003-.09-.015-.025-.013-.047-.03-.065-.05l-1.767-1.987V20.823h-.346v-2.639h.215c.023 0 .046.004.068.012zM54.189 18.186v.29h-1.467v.871h1.189v.28h-1.189v.9h1.467v.29h-1.893v-2.632h1.893zM10.805 1.891l18.384 4.504v15.784l-18.384-4.502V1.891zM9.626.545v17.898l20.739 5.083V5.63L9.626.545z"/>
      <path  d="M20.742 31.834 0 26.747V8.851l20.742 5.085v17.898z"/>
      <path  d="m9.97 1.688 18.144 4.448-7.716 6.66-18.146-4.45L9.97 1.688zM9.626.545 0 8.851l20.742 5.085 9.624-8.306L9.627.545zM21.909 30.827l8.457-7.299-8.457-2.074v9.374z"/>
    </symbol>
   <symbol id="iconlogo4" viewBox="0 0 59 32">
      <path d="M15.31 25.356c.14.156.215.352.211.553.007.131-.019.262-.075.383s-.143.229-.252.316c-.273.185-.61.276-.951.255h-1.671v-3.504h1.637c.323-.019.644.063.907.233.106.08.189.18.245.294s.08.238.073.361c.01.193-.058.383-.19.536-.127.139-.303.236-.498.274.222.036.422.143.565.3zm-1.961-.529h.7c.159.011.317-.031.445-.116.053-.043.093-.096.12-.155s.037-.123.031-.187c.005-.063-.006-.127-.031-.186s-.066-.113-.117-.156c-.132-.088-.295-.13-.458-.118h-.688v.919zm1.213 1.344c.056-.044.1-.099.129-.161s.041-.129.036-.195c.004-.068-.009-.135-.038-.198s-.074-.118-.131-.162c-.137-.091-.305-.136-.475-.127h-.734v.964h.744c.167.009.333-.034.47-.122zM18.656 26.862l-.911-1.369h-.342v1.369h-.783v-3.504h1.483c.374-.023.744.083 1.033.298.207.19.332.441.353.707s-.066.529-.242.743c-.183.189-.433.314-.707.356l.97 1.4h-.852zm-1.253-1.847h.641c.445 0 .667-.177.667-.531.005-.072-.008-.145-.036-.212s-.072-.13-.128-.181c-.141-.105-.322-.156-.504-.142h-.648l.008 1.067zM22.939 26.157h-1.561l-.276.705h-.821l1.434-3.465h.888l1.428 3.465h-.822l-.27-.705zm-.209-.53-.57-1.479-.57 1.479h1.141zM28.299 26.863h-.778l-1.744-2.383v2.383h-.776v-3.504h.776l1.744 2.397v-2.397h.778v3.504zM32.737 26.024c-.161.265-.406.48-.704.618-.338.154-.714.23-1.093.221h-1.384v-3.504h1.384c.378-.009.754.065 1.093.216.298.135.543.348.704.611.16.285.243.6.243.919s-.083.634-.243.919zm-.89-.084c.222-.233.344-.529.344-.836s-.122-.603-.344-.836c-.268-.211-.618-.318-.974-.298h-.54v2.268h.54c.355.02.705-.087.974-.298zM23.425 3.867s10.038 3.412 9.825 8.349v8.351s-10.031-3.413-9.821-8.351l-.004-8.349zM42.194 18.611c1.896-1.175 4.089-1.902 6.378-2.116v-2.614c-2.638.915-4.875 2.575-6.378 4.73z"/>
      <path d="M41.055 19.399c1.552-2.813 4.242-4.983 7.517-6.065V5.802s-14.296 4.86-13.993 11.891v11.889s.637-.217 1.639-.625c0-.38 0-.764.046-1.149.296-3.264 2.02-6.289 4.792-8.409z"/>
      <path d="M39.695 23.815c.075-.825.243-1.64.5-2.434-1.726 1.831-2.772 4.103-2.989 6.497-.021.226-.032.452-.038.685.812-.351 1.757-.789 2.75-1.304-.253-1.132-.328-2.291-.222-3.443zM40.264 23.858c-.095 1.042-.036 2.09.177 3.117 3.906-2.104 8.294-5.355 8.125-9.284v-.342c-2.791.281-5.401 1.379-7.431 3.126-.475 1.082-.769 2.222-.871 3.383z"/>
    </symbol>
<symbol id="icon-close">
 <path fill="#000" d="M8 .805714 7.19429 0 4 3.19429.805714 0 0 .805714 3.19429 4 0 7.19429.805714 8 4 4.80571 7.19429 8 8 7.19429 4.80571 4 8 .805714Z"/>
</symbol>
<defs>
    <symbol id="iconsend" viewBox="0 0 38 32">
      <path fill="#ffff" d="M38.4 0 0 18l12.272 3.788L31.2 7 16.803 23.186l.012.004-.014-.004V32l6.882-6.691L32.401 28l6-28z"/>
    </symbol>
    <symbol id="iconvector5" viewBox="0 0 32 32">
      <path d="M16 16c4.42 0 8-3.58 8-8s-3.58-8-8-8-8 3.58-8 8 3.58 8 8 8zm0 4c-5.34 0-16 2.68-16 8v2c0 1.1.9 2 2 2h28c1.1 0 2-.9 2-2v-2c0-5.32-10.66-8-16-8z"/>
    </symbol>
    <symbol id="iconvector6" viewBox="0 0 32 32">
      <path d="m28.865 21.822-4.525-.517c-1.087-.125-2.155.249-2.921 1.015l-3.278 3.278c-5.041-2.565-9.174-6.68-11.739-11.739l3.296-3.296c.766-.766 1.14-1.835 1.015-2.921l-.517-4.489C9.982 1.354 8.468 0 6.651 0H3.569C1.556 0-.118 1.675.006 3.687.95 18.9 13.117 31.049 28.312 31.993c2.013.125 3.687-1.55 3.687-3.563v-3.082c.018-1.799-1.336-3.313-3.135-3.527z"/>
    </symbol>
    <symbol id="iconvector7" viewBox="0 0 43 32">
      <path d="M37.333 0h-32c-2.2 0-3.98 1.8-3.98 4l-.02 24c0 2.2 1.8 4 4 4h32c2.2 0 4-1.8 4-4V4c0-2.2-1.8-4-4-4zm-.8 8.5-14.14 8.84c-.64.4-1.48.4-2.12 0L6.133 8.5c-.5-.32-.8-.86-.8-1.44 0-1.34 1.46-2.14 2.6-1.44l13.4 8.38 13.4-8.38c1.14-.7 2.6.1 2.6 1.44 0 .58-.3 1.12-.8 1.44z"/>
    </symbol>
    <symbol id="icon-charm_menu-hamburger" viewBox="0 0 47 32">
<path d="M1.34766 20.0431H30.8861M1.34766 10.7354H30.8861M1.34766 1.42773H30.8861" stroke="#2E2F42" stroke-width="3" stroke-linecap="round" stroke-linejoin="round"/>
</symbol>


  </defs>
</svg>
